<mxfile host="65bd71144e">
    <diagram id="neL44oRjK5zxVdb9nWQi" name="Page-1">
        <mxGraphModel dx="1528" dy="1277" grid="1" gridSize="10" guides="1" tooltips="1" connect="1" arrows="1" fold="1" page="1" pageScale="1" pageWidth="850" pageHeight="1100" math="0" shadow="0">
            <root>
                <mxCell id="0"/>
                <mxCell id="1" parent="0"/>
                <mxCell id="2" value="Parametri da settare :&lt;br&gt;1) numero minimo di records da avere&lt;br&gt;2)&amp;nbsp; max missing samples (raw session invalid)&lt;br&gt;3) ip degli altri sistemi con cui deve comunicare+&lt;br&gt;4)" style="text;html=1;align=center;verticalAlign=middle;resizable=0;points=[];autosize=1;strokeColor=none;fillColor=none;" vertex="1" parent="1">
                    <mxGeometry x="40" y="105" width="280" height="90" as="geometry"/>
                </mxCell>
                <mxCell id="69" value="" style="rounded=0;whiteSpace=wrap;html=1;" vertex="1" parent="1">
                    <mxGeometry x="30" y="230" width="790" height="770" as="geometry"/>
                </mxCell>
                <mxCell id="70" value="CHECK VALIDATION RESULTS" style="shape=table;startSize=30;container=1;collapsible=0;childLayout=tableLayout;strokeColor=#b85450;fontSize=16;fillColor=#f8cecc;perimeterSpacing=0;rounded=1;shadow=0;" vertex="1" parent="1">
                    <mxGeometry x="50" y="300" width="730" height="550" as="geometry"/>
                </mxCell>
                <mxCell id="71" value="" style="shape=tableRow;horizontal=0;startSize=0;swimlaneHead=0;swimlaneBody=0;strokeColor=inherit;top=0;left=0;bottom=0;right=0;collapsible=0;dropTarget=0;fillColor=none;points=[[0,0.5],[1,0.5]];portConstraint=eastwest;fontSize=16;" vertex="1" parent="70">
                    <mxGeometry y="30" width="730" height="86" as="geometry"/>
                </mxCell>
                <mxCell id="72" value="CLASSIFIERS" style="shape=partialRectangle;html=1;whiteSpace=wrap;connectable=0;strokeColor=#d79b00;overflow=hidden;fillColor=#ffe6cc;top=0;left=0;bottom=0;right=0;pointerEvents=1;fontSize=16;fontStyle=1;" vertex="1" parent="71">
                    <mxGeometry width="120" height="86" as="geometry">
                        <mxRectangle width="120" height="86" as="alternateBounds"/>
                    </mxGeometry>
                </mxCell>
                <mxCell id="73" value="Validation error" style="shape=partialRectangle;html=1;whiteSpace=wrap;connectable=0;strokeColor=#d79b00;overflow=hidden;fillColor=#ffe6cc;top=0;left=0;bottom=0;right=0;pointerEvents=1;fontSize=16;fontStyle=1;" vertex="1" parent="71">
                    <mxGeometry x="120" width="80" height="86" as="geometry">
                        <mxRectangle width="80" height="86" as="alternateBounds"/>
                    </mxGeometry>
                </mxCell>
                <mxCell id="74" value="Training error" style="shape=partialRectangle;html=1;whiteSpace=wrap;connectable=0;strokeColor=#d79b00;overflow=hidden;fillColor=#ffe6cc;top=0;left=0;bottom=0;right=0;pointerEvents=1;fontSize=16;fontStyle=1;" vertex="1" parent="71">
                    <mxGeometry x="200" width="90" height="86" as="geometry">
                        <mxRectangle width="90" height="86" as="alternateBounds"/>
                    </mxGeometry>
                </mxCell>
                <mxCell id="75" value="Number of layers" style="shape=partialRectangle;html=1;whiteSpace=wrap;connectable=0;strokeColor=#d79b00;overflow=hidden;fillColor=#ffe6cc;top=0;left=0;bottom=0;right=0;pointerEvents=1;fontSize=16;fontStyle=1;" vertex="1" parent="71">
                    <mxGeometry x="290" width="99" height="86" as="geometry">
                        <mxRectangle width="99" height="86" as="alternateBounds"/>
                    </mxGeometry>
                </mxCell>
                <mxCell id="76" value="Number of neurons" style="shape=partialRectangle;html=1;whiteSpace=wrap;connectable=0;strokeColor=#d79b00;overflow=hidden;fillColor=#ffe6cc;top=0;left=0;bottom=0;right=0;pointerEvents=1;fontSize=16;fontStyle=1;" vertex="1" parent="71">
                    <mxGeometry x="389" width="100" height="86" as="geometry">
                        <mxRectangle width="100" height="86" as="alternateBounds"/>
                    </mxGeometry>
                </mxCell>
                <mxCell id="77" value="Validation error - Training Error" style="shape=partialRectangle;html=1;whiteSpace=wrap;connectable=0;strokeColor=#d79b00;overflow=hidden;fillColor=#ffe6cc;top=0;left=0;bottom=0;right=0;pointerEvents=1;fontSize=16;fontStyle=1;" vertex="1" parent="71">
                    <mxGeometry x="489" width="141" height="86" as="geometry">
                        <mxRectangle width="141" height="86" as="alternateBounds"/>
                    </mxGeometry>
                </mxCell>
                <mxCell id="78" value="Classifier Choice" style="shape=partialRectangle;html=1;whiteSpace=wrap;connectable=0;strokeColor=#d79b00;overflow=hidden;fillColor=#ffe6cc;top=0;left=0;bottom=0;right=0;pointerEvents=1;fontSize=16;fontStyle=1;" vertex="1" parent="71">
                    <mxGeometry x="630" width="100" height="86" as="geometry">
                        <mxRectangle width="100" height="86" as="alternateBounds"/>
                    </mxGeometry>
                </mxCell>
                <mxCell id="79" value="" style="shape=tableRow;horizontal=0;startSize=0;swimlaneHead=0;swimlaneBody=0;strokeColor=inherit;top=0;left=0;bottom=0;right=0;collapsible=0;dropTarget=0;fillColor=none;points=[[0,0.5],[1,0.5]];portConstraint=eastwest;fontSize=16;" vertex="1" parent="70">
                    <mxGeometry y="116" width="730" height="89" as="geometry"/>
                </mxCell>
                <mxCell id="80" value="A" style="shape=partialRectangle;html=1;whiteSpace=wrap;connectable=0;strokeColor=#d6b656;overflow=hidden;fillColor=#fff2cc;top=0;left=0;bottom=0;right=0;pointerEvents=1;fontSize=16;fontStyle=3" vertex="1" parent="79">
                    <mxGeometry width="120" height="89" as="geometry">
                        <mxRectangle width="120" height="89" as="alternateBounds"/>
                    </mxGeometry>
                </mxCell>
                <mxCell id="81" value="0.04" style="shape=partialRectangle;html=1;whiteSpace=wrap;connectable=0;strokeColor=#d6b656;overflow=hidden;fillColor=#fff2cc;top=0;left=0;bottom=0;right=0;pointerEvents=1;fontSize=16;" vertex="1" parent="79">
                    <mxGeometry x="120" width="80" height="89" as="geometry">
                        <mxRectangle width="80" height="89" as="alternateBounds"/>
                    </mxGeometry>
                </mxCell>
                <mxCell id="82" value="0.01" style="shape=partialRectangle;html=1;whiteSpace=wrap;connectable=0;strokeColor=#d6b656;overflow=hidden;fillColor=#fff2cc;top=0;left=0;bottom=0;right=0;pointerEvents=1;fontSize=16;" vertex="1" parent="79">
                    <mxGeometry x="200" width="90" height="89" as="geometry">
                        <mxRectangle width="90" height="89" as="alternateBounds"/>
                    </mxGeometry>
                </mxCell>
                <mxCell id="83" value="3" style="shape=partialRectangle;html=1;whiteSpace=wrap;connectable=0;strokeColor=#d6b656;overflow=hidden;fillColor=#fff2cc;top=0;left=0;bottom=0;right=0;pointerEvents=1;fontSize=16;" vertex="1" parent="79">
                    <mxGeometry x="290" width="99" height="89" as="geometry">
                        <mxRectangle width="99" height="89" as="alternateBounds"/>
                    </mxGeometry>
                </mxCell>
                <mxCell id="84" value="100" style="shape=partialRectangle;html=1;whiteSpace=wrap;connectable=0;strokeColor=#d6b656;overflow=hidden;fillColor=#fff2cc;top=0;left=0;bottom=0;right=0;pointerEvents=1;fontSize=16;" vertex="1" parent="79">
                    <mxGeometry x="389" width="100" height="89" as="geometry">
                        <mxRectangle width="100" height="89" as="alternateBounds"/>
                    </mxGeometry>
                </mxCell>
                <mxCell id="85" value="0.03" style="shape=partialRectangle;html=1;whiteSpace=wrap;connectable=0;strokeColor=#82b366;overflow=hidden;fillColor=#d5e8d4;top=0;left=0;bottom=0;right=0;pointerEvents=1;fontSize=16;" vertex="1" parent="79">
                    <mxGeometry x="489" width="141" height="89" as="geometry">
                        <mxRectangle width="141" height="89" as="alternateBounds"/>
                    </mxGeometry>
                </mxCell>
                <mxCell id="86" style="shape=partialRectangle;html=1;whiteSpace=wrap;connectable=0;strokeColor=#82b366;overflow=hidden;fillColor=#d5e8d4;top=0;left=0;bottom=0;right=0;pointerEvents=1;fontSize=16;" vertex="1" parent="79">
                    <mxGeometry x="630" width="100" height="89" as="geometry">
                        <mxRectangle width="100" height="89" as="alternateBounds"/>
                    </mxGeometry>
                </mxCell>
                <mxCell id="87" value="" style="shape=tableRow;horizontal=0;startSize=0;swimlaneHead=0;swimlaneBody=0;strokeColor=inherit;top=0;left=0;bottom=0;right=0;collapsible=0;dropTarget=0;fillColor=none;points=[[0,0.5],[1,0.5]];portConstraint=eastwest;fontSize=16;" vertex="1" parent="70">
                    <mxGeometry y="205" width="730" height="85" as="geometry"/>
                </mxCell>
                <mxCell id="88" value="B" style="shape=partialRectangle;html=1;whiteSpace=wrap;connectable=0;strokeColor=#d6b656;overflow=hidden;fillColor=#fff2cc;top=0;left=0;bottom=0;right=0;pointerEvents=1;fontSize=16;fontStyle=3" vertex="1" parent="87">
                    <mxGeometry width="120" height="85" as="geometry">
                        <mxRectangle width="120" height="85" as="alternateBounds"/>
                    </mxGeometry>
                </mxCell>
                <mxCell id="89" value="0.06" style="shape=partialRectangle;html=1;whiteSpace=wrap;connectable=0;strokeColor=#d6b656;overflow=hidden;fillColor=#fff2cc;top=0;left=0;bottom=0;right=0;pointerEvents=1;fontSize=16;" vertex="1" parent="87">
                    <mxGeometry x="120" width="80" height="85" as="geometry">
                        <mxRectangle width="80" height="85" as="alternateBounds"/>
                    </mxGeometry>
                </mxCell>
                <mxCell id="90" value="0.02" style="shape=partialRectangle;html=1;whiteSpace=wrap;connectable=0;strokeColor=#d6b656;overflow=hidden;fillColor=#fff2cc;top=0;left=0;bottom=0;right=0;pointerEvents=1;fontSize=16;" vertex="1" parent="87">
                    <mxGeometry x="200" width="90" height="85" as="geometry">
                        <mxRectangle width="90" height="85" as="alternateBounds"/>
                    </mxGeometry>
                </mxCell>
                <mxCell id="91" value="4" style="shape=partialRectangle;html=1;whiteSpace=wrap;connectable=0;strokeColor=#d6b656;overflow=hidden;fillColor=#fff2cc;top=0;left=0;bottom=0;right=0;pointerEvents=1;fontSize=16;" vertex="1" parent="87">
                    <mxGeometry x="290" width="99" height="85" as="geometry">
                        <mxRectangle width="99" height="85" as="alternateBounds"/>
                    </mxGeometry>
                </mxCell>
                <mxCell id="92" value="50" style="shape=partialRectangle;html=1;whiteSpace=wrap;connectable=0;strokeColor=#d6b656;overflow=hidden;fillColor=#fff2cc;top=0;left=0;bottom=0;right=0;pointerEvents=1;fontSize=16;" vertex="1" parent="87">
                    <mxGeometry x="389" width="100" height="85" as="geometry">
                        <mxRectangle width="100" height="85" as="alternateBounds"/>
                    </mxGeometry>
                </mxCell>
                <mxCell id="93" value="0.04" style="shape=partialRectangle;html=1;whiteSpace=wrap;connectable=0;strokeColor=#82b366;overflow=hidden;fillColor=#d5e8d4;top=0;left=0;bottom=0;right=0;pointerEvents=1;fontSize=16;" vertex="1" parent="87">
                    <mxGeometry x="489" width="141" height="85" as="geometry">
                        <mxRectangle width="141" height="85" as="alternateBounds"/>
                    </mxGeometry>
                </mxCell>
                <mxCell id="94" style="shape=partialRectangle;html=1;whiteSpace=wrap;connectable=0;strokeColor=#82b366;overflow=hidden;fillColor=#d5e8d4;top=0;left=0;bottom=0;right=0;pointerEvents=1;fontSize=16;" vertex="1" parent="87">
                    <mxGeometry x="630" width="100" height="85" as="geometry">
                        <mxRectangle width="100" height="85" as="alternateBounds"/>
                    </mxGeometry>
                </mxCell>
                <mxCell id="95" style="shape=tableRow;horizontal=0;startSize=0;swimlaneHead=0;swimlaneBody=0;strokeColor=inherit;top=0;left=0;bottom=0;right=0;collapsible=0;dropTarget=0;fillColor=none;points=[[0,0.5],[1,0.5]];portConstraint=eastwest;fontSize=16;" vertex="1" parent="70">
                    <mxGeometry y="290" width="730" height="87" as="geometry"/>
                </mxCell>
                <mxCell id="96" value="C" style="shape=partialRectangle;html=1;whiteSpace=wrap;connectable=0;strokeColor=#d6b656;overflow=hidden;fillColor=#fff2cc;top=0;left=0;bottom=0;right=0;pointerEvents=1;fontSize=16;fontStyle=3" vertex="1" parent="95">
                    <mxGeometry width="120" height="87" as="geometry">
                        <mxRectangle width="120" height="87" as="alternateBounds"/>
                    </mxGeometry>
                </mxCell>
                <mxCell id="97" value="0.15" style="shape=partialRectangle;html=1;whiteSpace=wrap;connectable=0;strokeColor=#d6b656;overflow=hidden;fillColor=#fff2cc;top=0;left=0;bottom=0;right=0;pointerEvents=1;fontSize=16;" vertex="1" parent="95">
                    <mxGeometry x="120" width="80" height="87" as="geometry">
                        <mxRectangle width="80" height="87" as="alternateBounds"/>
                    </mxGeometry>
                </mxCell>
                <mxCell id="98" value="0.10" style="shape=partialRectangle;html=1;whiteSpace=wrap;connectable=0;strokeColor=#d6b656;overflow=hidden;fillColor=#fff2cc;top=0;left=0;bottom=0;right=0;pointerEvents=1;fontSize=16;" vertex="1" parent="95">
                    <mxGeometry x="200" width="90" height="87" as="geometry">
                        <mxRectangle width="90" height="87" as="alternateBounds"/>
                    </mxGeometry>
                </mxCell>
                <mxCell id="99" value="3" style="shape=partialRectangle;html=1;whiteSpace=wrap;connectable=0;strokeColor=#d6b656;overflow=hidden;fillColor=#fff2cc;top=0;left=0;bottom=0;right=0;pointerEvents=1;fontSize=16;" vertex="1" parent="95">
                    <mxGeometry x="290" width="99" height="87" as="geometry">
                        <mxRectangle width="99" height="87" as="alternateBounds"/>
                    </mxGeometry>
                </mxCell>
                <mxCell id="100" value="120" style="shape=partialRectangle;html=1;whiteSpace=wrap;connectable=0;strokeColor=#d6b656;overflow=hidden;fillColor=#fff2cc;top=0;left=0;bottom=0;right=0;pointerEvents=1;fontSize=16;" vertex="1" parent="95">
                    <mxGeometry x="389" width="100" height="87" as="geometry">
                        <mxRectangle width="100" height="87" as="alternateBounds"/>
                    </mxGeometry>
                </mxCell>
                <mxCell id="101" value="0.05" style="shape=partialRectangle;html=1;whiteSpace=wrap;connectable=0;strokeColor=#82b366;overflow=hidden;fillColor=#d5e8d4;top=0;left=0;bottom=0;right=0;pointerEvents=1;fontSize=16;fontStyle=0" vertex="1" parent="95">
                    <mxGeometry x="489" width="141" height="87" as="geometry">
                        <mxRectangle width="141" height="87" as="alternateBounds"/>
                    </mxGeometry>
                </mxCell>
                <mxCell id="102" style="shape=partialRectangle;html=1;whiteSpace=wrap;connectable=0;strokeColor=#82b366;overflow=hidden;fillColor=#d5e8d4;top=0;left=0;bottom=0;right=0;pointerEvents=1;fontSize=16;fontStyle=0" vertex="1" parent="95">
                    <mxGeometry x="630" width="100" height="87" as="geometry">
                        <mxRectangle width="100" height="87" as="alternateBounds"/>
                    </mxGeometry>
                </mxCell>
                <mxCell id="103" style="shape=tableRow;horizontal=0;startSize=0;swimlaneHead=0;swimlaneBody=0;strokeColor=inherit;top=0;left=0;bottom=0;right=0;collapsible=0;dropTarget=0;fillColor=none;points=[[0,0.5],[1,0.5]];portConstraint=eastwest;fontSize=16;" vertex="1" parent="70">
                    <mxGeometry y="377" width="730" height="87" as="geometry"/>
                </mxCell>
                <mxCell id="104" value="D" style="shape=partialRectangle;html=1;whiteSpace=wrap;connectable=0;strokeColor=#d6b656;overflow=hidden;fillColor=#fff2cc;top=0;left=0;bottom=0;right=0;pointerEvents=1;fontSize=16;fontStyle=3" vertex="1" parent="103">
                    <mxGeometry width="120" height="87" as="geometry">
                        <mxRectangle width="120" height="87" as="alternateBounds"/>
                    </mxGeometry>
                </mxCell>
                <mxCell id="105" value="0.09" style="shape=partialRectangle;html=1;whiteSpace=wrap;connectable=0;strokeColor=#d6b656;overflow=hidden;fillColor=#fff2cc;top=0;left=0;bottom=0;right=0;pointerEvents=1;fontSize=16;" vertex="1" parent="103">
                    <mxGeometry x="120" width="80" height="87" as="geometry">
                        <mxRectangle width="80" height="87" as="alternateBounds"/>
                    </mxGeometry>
                </mxCell>
                <mxCell id="106" value="0.01" style="shape=partialRectangle;html=1;whiteSpace=wrap;connectable=0;strokeColor=#d6b656;overflow=hidden;fillColor=#fff2cc;top=0;left=0;bottom=0;right=0;pointerEvents=1;fontSize=16;" vertex="1" parent="103">
                    <mxGeometry x="200" width="90" height="87" as="geometry">
                        <mxRectangle width="90" height="87" as="alternateBounds"/>
                    </mxGeometry>
                </mxCell>
                <mxCell id="107" value="5" style="shape=partialRectangle;html=1;whiteSpace=wrap;connectable=0;strokeColor=#d6b656;overflow=hidden;fillColor=#fff2cc;top=0;left=0;bottom=0;right=0;pointerEvents=1;fontSize=16;" vertex="1" parent="103">
                    <mxGeometry x="290" width="99" height="87" as="geometry">
                        <mxRectangle width="99" height="87" as="alternateBounds"/>
                    </mxGeometry>
                </mxCell>
                <mxCell id="108" value="200" style="shape=partialRectangle;html=1;whiteSpace=wrap;connectable=0;strokeColor=#d6b656;overflow=hidden;fillColor=#fff2cc;top=0;left=0;bottom=0;right=0;pointerEvents=1;fontSize=16;" vertex="1" parent="103">
                    <mxGeometry x="389" width="100" height="87" as="geometry">
                        <mxRectangle width="100" height="87" as="alternateBounds"/>
                    </mxGeometry>
                </mxCell>
                <mxCell id="109" value="0.08" style="shape=partialRectangle;html=1;whiteSpace=wrap;connectable=0;strokeColor=#b85450;overflow=hidden;fillColor=#f8cecc;top=0;left=0;bottom=0;right=0;pointerEvents=1;fontSize=16;" vertex="1" parent="103">
                    <mxGeometry x="489" width="141" height="87" as="geometry">
                        <mxRectangle width="141" height="87" as="alternateBounds"/>
                    </mxGeometry>
                </mxCell>
                <mxCell id="110" style="shape=partialRectangle;html=1;whiteSpace=wrap;connectable=0;strokeColor=#b85450;overflow=hidden;fillColor=#f8cecc;top=0;left=0;bottom=0;right=0;pointerEvents=1;fontSize=16;" vertex="1" parent="103">
                    <mxGeometry x="630" width="100" height="87" as="geometry">
                        <mxRectangle width="100" height="87" as="alternateBounds"/>
                    </mxGeometry>
                </mxCell>
                <mxCell id="111" style="shape=tableRow;horizontal=0;startSize=0;swimlaneHead=0;swimlaneBody=0;strokeColor=inherit;top=0;left=0;bottom=0;right=0;collapsible=0;dropTarget=0;fillColor=none;points=[[0,0.5],[1,0.5]];portConstraint=eastwest;fontSize=16;" vertex="1" parent="70">
                    <mxGeometry y="464" width="730" height="86" as="geometry"/>
                </mxCell>
                <mxCell id="112" value="E" style="shape=partialRectangle;html=1;whiteSpace=wrap;connectable=0;strokeColor=#d6b656;overflow=hidden;fillColor=#fff2cc;top=0;left=0;bottom=0;right=0;pointerEvents=1;fontSize=16;fontStyle=3" vertex="1" parent="111">
                    <mxGeometry width="120" height="86" as="geometry">
                        <mxRectangle width="120" height="86" as="alternateBounds"/>
                    </mxGeometry>
                </mxCell>
                <mxCell id="113" value="0.12" style="shape=partialRectangle;html=1;whiteSpace=wrap;connectable=0;strokeColor=#d6b656;overflow=hidden;fillColor=#fff2cc;top=0;left=0;bottom=0;right=0;pointerEvents=1;fontSize=16;" vertex="1" parent="111">
                    <mxGeometry x="120" width="80" height="86" as="geometry">
                        <mxRectangle width="80" height="86" as="alternateBounds"/>
                    </mxGeometry>
                </mxCell>
                <mxCell id="114" value="0.02" style="shape=partialRectangle;html=1;whiteSpace=wrap;connectable=0;strokeColor=#d6b656;overflow=hidden;fillColor=#fff2cc;top=0;left=0;bottom=0;right=0;pointerEvents=1;fontSize=16;" vertex="1" parent="111">
                    <mxGeometry x="200" width="90" height="86" as="geometry">
                        <mxRectangle width="90" height="86" as="alternateBounds"/>
                    </mxGeometry>
                </mxCell>
                <mxCell id="115" value="4" style="shape=partialRectangle;html=1;whiteSpace=wrap;connectable=0;strokeColor=#d6b656;overflow=hidden;fillColor=#fff2cc;top=0;left=0;bottom=0;right=0;pointerEvents=1;fontSize=16;" vertex="1" parent="111">
                    <mxGeometry x="290" width="99" height="86" as="geometry">
                        <mxRectangle width="99" height="86" as="alternateBounds"/>
                    </mxGeometry>
                </mxCell>
                <mxCell id="116" value="160" style="shape=partialRectangle;html=1;whiteSpace=wrap;connectable=0;strokeColor=#d6b656;overflow=hidden;fillColor=#fff2cc;top=0;left=0;bottom=0;right=0;pointerEvents=1;fontSize=16;" vertex="1" parent="111">
                    <mxGeometry x="389" width="100" height="86" as="geometry">
                        <mxRectangle width="100" height="86" as="alternateBounds"/>
                    </mxGeometry>
                </mxCell>
                <mxCell id="117" value="0.10" style="shape=partialRectangle;html=1;whiteSpace=wrap;connectable=0;strokeColor=#b85450;overflow=hidden;fillColor=#f8cecc;top=0;left=0;bottom=0;right=0;pointerEvents=1;fontSize=16;" vertex="1" parent="111">
                    <mxGeometry x="489" width="141" height="86" as="geometry">
                        <mxRectangle width="141" height="86" as="alternateBounds"/>
                    </mxGeometry>
                </mxCell>
                <mxCell id="118" style="shape=partialRectangle;html=1;whiteSpace=wrap;connectable=0;strokeColor=#b85450;overflow=hidden;fillColor=#f8cecc;top=0;left=0;bottom=0;right=0;pointerEvents=1;fontSize=16;" vertex="1" parent="111">
                    <mxGeometry x="630" width="100" height="86" as="geometry">
                        <mxRectangle width="100" height="86" as="alternateBounds"/>
                    </mxGeometry>
                </mxCell>
                <mxCell id="119" value="Save Classifier" style="rounded=1;whiteSpace=wrap;html=1;fillColor=#d5e8d4;strokeColor=#82b366;arcSize=43;" vertex="1" parent="1">
                    <mxGeometry x="440" y="920" width="200" height="60" as="geometry"/>
                </mxCell>
                <mxCell id="120" value="Invalid Classifier" style="rounded=1;whiteSpace=wrap;html=1;fillColor=#f8cecc;strokeColor=#b85450;arcSize=43;" vertex="1" parent="1">
                    <mxGeometry x="190" y="920" width="200" height="60" as="geometry"/>
                </mxCell>
                <mxCell id="121" value="Overfitting threshold = 0.078" style="rounded=0;whiteSpace=wrap;html=1;" vertex="1" parent="1">
                    <mxGeometry x="310" y="870" width="220" height="30" as="geometry"/>
                </mxCell>
                <mxCell id="122" value="" style="html=1;shadow=0;dashed=0;shape=mxgraph.bootstrap.radioButton2;labelPosition=right;verticalLabelPosition=middle;align=left;verticalAlign=middle;gradientColor=#DEDEDE;fillColor=#EDEDED;checked=0;spacing=5;checkedFill=#0085FC;checkedStroke=#ffffff;sketch=0;" vertex="1" parent="1">
                    <mxGeometry x="720" y="540" width="20" height="20" as="geometry"/>
                </mxCell>
                <mxCell id="123" value="" style="html=1;shadow=0;dashed=0;shape=mxgraph.bootstrap.radioButton2;labelPosition=right;verticalLabelPosition=middle;align=left;verticalAlign=middle;gradientColor=#DEDEDE;fillColor=#EDEDED;checked=0;spacing=5;checkedFill=#0085FC;checkedStroke=#ffffff;sketch=0;" vertex="1" parent="1">
                    <mxGeometry x="720" y="450" width="20" height="20" as="geometry"/>
                </mxCell>
                <mxCell id="124" value="" style="html=1;shadow=0;dashed=0;shape=mxgraph.bootstrap.radioButton2;labelPosition=right;verticalLabelPosition=middle;align=left;verticalAlign=middle;gradientColor=#DEDEDE;fillColor=#EDEDED;checked=0;spacing=5;checkedFill=#0085FC;checkedStroke=#ffffff;sketch=0;" vertex="1" parent="1">
                    <mxGeometry x="720" y="630" width="20" height="20" as="geometry"/>
                </mxCell>
                <mxCell id="125" value="" style="html=1;shadow=0;dashed=0;shape=mxgraph.bootstrap.radioButton2;labelPosition=right;verticalLabelPosition=middle;align=left;verticalAlign=middle;gradientColor=#DEDEDE;fillColor=#EDEDED;checked=0;spacing=5;checkedFill=#0085FC;checkedStroke=#ffffff;sketch=0;" vertex="1" parent="1">
                    <mxGeometry x="720" y="720" width="20" height="20" as="geometry"/>
                </mxCell>
                <mxCell id="126" value="" style="html=1;shadow=0;dashed=0;shape=mxgraph.bootstrap.radioButton2;labelPosition=right;verticalLabelPosition=middle;align=left;verticalAlign=middle;gradientColor=#DEDEDE;fillColor=#EDEDED;checked=0;spacing=5;checkedFill=#0085FC;checkedStroke=#ffffff;sketch=0;" vertex="1" parent="1">
                    <mxGeometry x="720" y="795" width="20" height="20" as="geometry"/>
                </mxCell>
                <mxCell id="127" value="" style="shape=ellipse;fillColor=#444444;strokeColor=none;html=1;" vertex="1" parent="1">
                    <mxGeometry x="725.5" y="455.5" width="9" height="9" as="geometry"/>
                </mxCell>
                <mxCell id="128" value="" style="verticalLabelPosition=bottom;shadow=0;dashed=0;align=center;html=1;verticalAlign=top;strokeWidth=1;shape=mxgraph.mockup.navigation.scrollBar;strokeColor=#666666;barPos=15.655;fillColor2=#99ddff;strokeColor2=none;direction=north;movable=1;resizable=1;rotatable=1;deletable=1;editable=1;locked=0;connectable=1;flipV=1;fillColor=#f5f5f5;fontColor=#333333;" vertex="1" parent="1">
                    <mxGeometry x="780" y="330" width="20" height="520" as="geometry"/>
                </mxCell>
                <mxCell id="129" value="" style="ellipse;whiteSpace=wrap;html=1;aspect=fixed;" vertex="1" parent="1">
                    <mxGeometry x="670" y="245" width="40" height="40" as="geometry"/>
                </mxCell>
                <mxCell id="130" value="" style="shape=sumEllipse;perimeter=ellipsePerimeter;whiteSpace=wrap;html=1;backgroundOutline=1;" vertex="1" parent="1">
                    <mxGeometry x="760" y="245" width="40" height="40" as="geometry"/>
                </mxCell>
                <mxCell id="131" value="" style="shape=lineEllipse;perimeter=ellipsePerimeter;whiteSpace=wrap;html=1;backgroundOutline=1;" vertex="1" parent="1">
                    <mxGeometry x="714.5" y="245" width="40" height="40" as="geometry"/>
                </mxCell>
                <mxCell id="132" value="Validation Results" style="strokeWidth=1;shadow=0;dashed=0;align=center;html=1;shape=mxgraph.mockup.text.textBox;fontColor=#666666;align=left;fontSize=17;spacingLeft=4;spacingTop=-3;strokeColor=#666666;mainText=" vertex="1" parent="1">
                    <mxGeometry x="50" y="250" width="600" height="30" as="geometry"/>
                </mxCell>
            </root>
        </mxGraphModel>
    </diagram>
</mxfile>